<svg id="Layer_1" enable-background="new 0 0 512 512" height="512" viewBox="0 0 512 512" width="512" xmlns="http://www.w3.org/2000/svg"><path d="m128.62 139.212v82.643c0 14.989 12.194 27.183 27.184 27.183h200.392c14.988 0 27.183-12.194 27.183-27.183v-82.642c7.749-7.398 11.684-15.994 11.684-25.608v-46.763c0-9.831-7.998-17.829-17.829-17.829h-67.21v-14.55c-.002-14.592-11.873-26.463-26.463-26.463h-55.119c-14.592 0-26.464 11.871-26.464 26.463v14.55h-67.21c-9.831 0-17.829 7.998-17.829 17.829v46.764c-.001 9.613 3.934 18.208 11.681 25.606zm227.575 93.827h-200.391c-6.167 0-11.184-5.017-11.184-11.183v-71.737c21.169 10.153 54.991 14.078 78.091 15.591v21.457c0 4.418 3.582 8 8 8h50.578c4.418 0 8-3.582 8-8v-21.474c23.118-1.523 56.958-5.456 78.089-15.575v71.739c0 6.165-5.017 11.182-11.183 11.182zm-117.484-53.873v-34.578h34.578v34.578zm-43.151-114.153h120.88v23.962c0 2.344-1.979 4.324-4.323 4.324h-112.233c-2.344 0-4.324-1.98-4.324-4.324zm22.418-30.55c0-5.77 4.694-10.463 10.464-10.463h55.119c5.769 0 10.462 4.693 10.462 10.463v14.55h-76.045zm-85.04 32.379c0-.992.838-1.829 1.829-1.829h44.792v23.962c0 11.207 9.117 20.324 20.324 20.324h112.233c11.206 0 20.323-9.117 20.323-20.324v-23.962h44.792c.991 0 1.829.837 1.829 1.829v46.764c0 5.902-2.783 10.935-8.76 15.841-1.508 1.237-3.248 2.483-5.173 3.701-12.746 8.064-40.748 14.113-75.84 16.507v-13.066c0-4.418-3.582-8-8-8h-50.578c-4.418 0-8 3.582-8 8v13.084c-35.046-2.376-63.048-8.431-75.839-16.523-1.924-1.217-3.665-2.463-5.176-3.703-5.975-4.905-8.758-9.938-8.758-15.839v-46.766zm336.077 290.725c12.089-12.085 18.228-27.329 17.755-44.085l-4.568-161.259c-.431-15.218-15.604-28.851-31.971-28.851-.156 0-.314.001-.471.003-8.008.128-34.119 4.5-33.927 55.355l.334 87.599c.012 3.197-.302 6.249-.956 9.197-1.109-1.63-2.41-3.198-3.902-4.689-11.058-11.06-29.184-11.184-41.268-.286-.268.241-.519.5-.751.775-14.206 16.796-31.619 31.472-45.611 43.264-4.881 4.114-9.491 8-13.266 11.402-15.519 13.985-17.584 33.381-17.558 50.509l.096 63.777-6.969-.06c-.056 0-.111 0-.167 0-10.479 0-19.051 8.479-19.142 18.98l-.21 24.402c-.091 10.555 8.423 19.217 18.98 19.31l126.768 1.09h.167c10.479 0 19.051-8.479 19.142-18.98l.21-24.403c.091-10.556-8.424-19.218-18.98-19.309l-14.331-.123v-13.02zm-53.286 102.912-.21 24.403c-.015 1.696-1.452 3.119-3.146 3.118-.009 0-.018 0-.026 0l-126.765-1.089c-1.706-.015-3.134-1.468-3.119-3.173l.21-24.402c.01-1.116.599-1.861.949-2.206.348-.342 1.093-.912 2.194-.912.01 0 .019.001.028.001l126.766 1.089c1.706.014 3.134 1.466 3.119 3.171zm-106.777-20.063-.096-63.938c-.022-14.285 1.449-28.849 12.27-38.6 3.577-3.225 7.881-6.853 12.864-11.053 14.329-12.075 32.132-27.079 47.13-44.71 5.829-4.961 13.866-4.974 18.876.036 6.072 6.071 4.167 12.603.998 17.427-8.236 9.46-32.808 33.326-36.816 37.334-3.124 3.125-3.124 8.189 0 11.314 3.125 3.123 8.189 3.125 11.314 0 3.926-3.927 37.895-38.431 38.196-38.863 1.631-1.888 3.266-3.835 4.908-5.856 9.184-11.308 13.623-23.488 13.571-37.237l-.334-87.599c-.093-24.422 6.705-39.113 18.183-39.297.073-.001.145-.002.217-.002 7.764 0 15.787 6.652 15.975 13.304l4.568 161.258c.352 12.422-4.047 23.295-13.074 32.318l-72.94 72.941c-1.5 1.501-2.343 3.535-2.343 5.657v16.196zm-19.259 28.111c1.734-4.361 6.675-6.491 11.036-4.757s6.491 6.675 4.757 11.036-6.675 6.491-11.036 4.757-6.491-6.675-4.757-11.036zm-63.508-28.308c-.056 0-.112 0-.167 0l-6.969.06.096-63.776c.026-17.129-2.039-36.524-17.557-50.51-3.775-3.402-8.386-7.288-13.267-11.402-13.992-11.792-31.405-26.468-45.611-43.264-.232-.275-.483-.534-.751-.775-12.085-10.896-30.213-10.771-41.267.285-1.492 1.492-2.794 3.061-3.903 4.69-.654-2.948-.968-5.999-.956-9.197l.334-87.599c.192-50.856-25.92-55.227-33.927-55.355-16.59-.254-32.007 13.485-32.44 28.847l-4.569 161.26c-.473 16.755 5.666 31.999 17.754 44.084l70.598 70.598v13.02l-14.331.123c-10.557.091-19.071 8.753-18.98 19.309l.21 24.403c.091 10.501 8.661 18.981 19.142 18.98h.167l126.769-1.089c10.556-.093 19.069-8.755 18.979-19.311l-.21-24.401c-.094-10.501-8.664-18.98-19.144-18.98zm-98.946-21.025-72.941-72.941c-9.026-9.023-13.425-19.896-13.073-32.317l4.569-161.26c.188-6.652 8.21-13.303 15.974-13.303.072 0 .145 0 .216.002 11.479.184 18.276 14.874 18.184 39.297l-.334 87.599c-.052 13.749 4.388 25.93 13.572 37.238 1.643 2.021 39.178 40.792 43.104 44.719 3.126 3.124 8.19 3.122 11.314 0 3.124-3.125 3.124-8.189 0-11.314-4.009-4.008-28.58-27.873-36.816-37.334-3.169-4.824-5.074-11.355.999-17.428 5.009-5.009 13.044-4.997 18.875-.035 14.998 17.631 32.801 32.635 47.13 44.71 4.983 4.2 9.287 7.828 12.865 11.053 10.819 9.751 12.291 24.314 12.269 38.601l-.096 63.938-73.466.631v-16.196c-.002-2.125-.845-4.159-2.345-5.66zm99.18 67.717-126.767 1.089c-1.745.005-3.157-1.413-3.172-3.117l-.21-24.403c-.015-1.705 1.413-3.157 3.117-3.172l126.767-1.089c1.117-.027 1.872.566 2.223.911s.939 1.09.949 2.207l.21 24.401c.015 1.705-1.413 3.158-3.117 3.173zm-4.112-18.384c1.734 4.361-.396 9.302-4.757 11.036s-9.302-.396-11.036-4.757c-1.733-4.361.396-9.302 4.757-11.036 4.361-1.733 9.302.396 11.036 4.757z"/></svg>