<svg id="Layer_1" enable-background="new 0 0 512 512" viewBox="0 0 512 512" xmlns="http://www.w3.org/2000/svg"><path d="m403.8 266.2c-26.5 0-48 21.6-48 48.1 1.3 59.1 85.6 65.3 95.5 7.2 4.8-28.7-18.4-55.5-47.5-55.3zm36.6 52.1c-6.1 45.6-72.3 42.2-73.4-4 2.4-51.4 76.7-47.2 73.4 4zm60.4 21.4c5.7-.5 10.2-5.3 10.2-11v-29c0-5.7-4.3-10.4-10-11.1l-18.8-1.9c-1-2.9-2.2-5.8-3.6-8.5l11.9-14.5c3.7-4.4 3.4-10.9-.7-15l-20.5-20.4c-4.7-4.8-12-4-16.5.6v-162.4c0-32.6-26.6-59.2-59.2-59.2-.1 0-33.5 0-33.6 0h-324.6c-45.9 1.6-46.1 67.8 0 69.5h23.2v368.6c0 32.6 26.6 59.2 59.2 59.2h33.7 324.7c46-1.6 46-67.9 0-69.5h-23.4v-35.5c4.5 4.6 11.9 5.4 16.5.6 0 0 20.5-20.5 20.5-20.5 4-4.1 4.3-10.6.7-14.9l-12-14.6c1.4-2.8 2.6-5.9 3.6-8.6zm-465.3-274.2c-31-1-31-45.9 0-46.9h299c-12.1 12.7-12.1 34.4 0 46.9zm116.1 427.9h-33.7c-26.4 0-47.9-21.5-47.9-47.9v-368.7h290.2c7.4 0 7.4-11.3 0-11.3-13 0-23.5-10.7-23.5-23.5 0-11.3 8.1-20.8 18.7-23 1.9-.8 35.3-.4 38.3-.5 26.4 0 47.9 21.5 47.9 47.9v171.4l-1.8 1.5c-2.8-1.4-5.7-2.5-8.5-3.5l-1.9-18.9c-.7-5.6-5.4-9.8-11.1-9.8h-28.9c-5.6 0-10.5 4.2-11.1 9.9l-2 18.8c-2.8 1-5.7 2.2-8.5 3.5l-14.6-11.9c-4.5-3.7-11-3.3-14.9.8l-20.6 20.4c-3.9 3.9-4.3 10.5-.8 14.9l11.9 14.6c-1.3 2.7-2.5 5.6-3.5 8.5l-18.9 1.9c-5.6.7-9.8 5.4-9.8 11.1v29c0 5.5 4.4 10.5 10 11l18.8 2c.9 2.6 2.2 5.8 3.6 8.6l-12 14.8c-3.5 4.4-3.1 10.9.8 14.8l20.4 20.3c3.9 4.2 10.5 4.6 15 .9l14.6-11.9c2.7 1.3 5.6 2.5 8.5 3.6l2 18.8c.6 5.7 5.3 10 11.1 10h28.9c5.6 0 10.4-4.2 11.1-10l1.9-18.8c3-1.1 5.8-2.3 8.5-3.6l1.8 1.5v44.7h-290c-3.2 0-5.7 2.6-5.6 5.7 0 3.1 2.5 5.6 5.6 5.6 6.2 0 11.8 2.5 16 6.4 15.5 13.6 4.9 40.8-16 40.4zm324.6-46.9c31 1 31 45.9 0 46.9h-299c12.1-12.6 12-34.6 0-46.9zm-8.6-91.9s14.3 17.2 14.3 17.2l-20.2 20.4-17.7-14.2c-1.8-1.4-4.3-1.7-6.2-.6-4 2.2-8.5 4.1-13.5 5.7-2.1.7-3.7 2.6-3.9 4.8l-2.1 22.2-28.7.2-2.3-22.4c-.2-2.2-1.8-4.1-3.9-4.8-4.8-1.5-9.4-3.4-13.5-5.7-2-1-4.5-.8-6.2.6l-17.2 14.2c-2.8-2.8-18-17.9-20.5-20.2l14.3-17.4c3-3.4-.1-7.4-1.5-10.6-3-4.9-2-12.1-8.2-13.2 0 0-22.3-2.1-22.3-2.1l-.2-28.9 22.5-2.3c2.3-.2 4.2-1.8 4.8-4 1.4-4.8 3.3-9.3 5.5-13.4 1.1-2 .9-4.5-.6-6.3l-14.3-17.3 20.3-20.4 17.5 14.2c1.8 1.4 4.2 1.7 6.2.6 4.5-2.4 9-4.2 13.4-5.5 2.2-.6 3.8-2.5 4.1-4.8l2.2-22.3 28.7-.2 2.3 22.5c.2 2.3 1.8 4.2 4.1 4.9 4.5 1.3 9 3.1 13.3 5.5 4.6 2.9 9.6-3.8 13-6 .1-.2 10.5-8.6 10.6-8.7l20.4 20.2-14.5 17.5c-1.4 1.8-1.7 4.2-.6 6.3 2.3 4.2 4.2 8.7 5.6 13.4.7 2.2 2.6 3.7 4.8 4l22.3 2.3.1 28.6-22.4 2.3c-6.1 1-5.5 8.4-8.2 12.9-1.5 3.3-4.6 7.4-1.6 10.8zm-366.9-119.8h146.4c3.1 0 5.6-2.5 5.6-5.6v-41.8c0-3.1-2.5-5.6-5.6-5.6h-146.4c-3.1 0-5.6 2.5-5.6 5.6v41.8c0 3 2.5 5.6 5.6 5.6zm5.7-41.8h135.1v30.5h-135.1zm-5.7 78.1h81.3c7.4 0 7.4 11.3 0 11.3h-81.3c-7.4-.1-7.3-11.3 0-11.3zm153.9 51.2h-153.8c-7.4 0-7.3-11.3 0-11.3h153.8c7.4.1 7.3 11.3 0 11.3zm0 28.7c7.4 0 7.3 11.3 0 11.3h-153.8c-7.4 0-7.3-11.3 0-11.3zm0 51.3h-153.8c-7.4 0-7.3-11.3 0-11.3h153.8c7.4 0 7.3 11.2 0 11.3zm-58.1-251.6h27.4c3.1 0 5.6-2.5 5.6-5.6v-44.3c0-3.1-2.5-5.6-5.6-5.6h-27.4c-3.1 0-5.6 2.5-5.6 5.6v44.3c-.1 3.1 2.5 5.6 5.6 5.6zm5.6-44.3h16.1v33h-16.1zm131.9 38.7v-44.3c0-3.1 2.5-5.6 5.6-5.6h27.4c7.4 0 7.4 11.3 0 11.3h-21.8v33h21.8c7.4 0 7.4 11.2 0 11.3h-27.4c-3.1-.1-5.6-2.6-5.6-5.7zm-95.4 0v-10.1c0-7.4 11.3-7.4 11.3 0v4.5h16.1v-38.7c0-7.4 11.3-7.4 11.3 0v44.3c0 3.1-2.5 5.6-5.6 5.6h-27.4c-3.2 0-5.7-2.5-5.7-5.6zm47.7 0v-44.3c0-3.1 2.5-5.6 5.6-5.6h27.4c7.4 0 7.4 11.3 0 11.3h-21.8v10.9h21.8c3.1 0 5.6 2.5 5.6 5.6s-2.5 5.6-5.6 5.6h-21.8v10.9h21.8c7.4 0 7.4 11.2 0 11.3h-27.3c-3.1-.1-5.7-2.6-5.7-5.7zm99.5-50h27.4c7.4 0 7.4 11.3 0 11.3h-8.1v38.7c0 3.1-2.5 5.6-5.6 5.6s-5.6-2.5-5.6-5.6v-38.7h-8.1c-7.4 0-7.4-11.2 0-11.3zm-281.8 50v-16.5h21.8c3.1 0 5.6-2.5 5.6-5.6v-22.2c0-3.1-2.5-5.6-5.6-5.6h-27.4c-3.1 0-5.6 2.5-5.6 5.6v44.3c0 7.3 11.2 7.4 11.2 0zm0-38.7h16.1v10.9h-16.1zm44.7 44.3c3.1 0 5.6-2.5 5.6-5.6v-11.2l18.1 15.5c1.1.9 2.4 1.4 3.7 1.4 5 .2 7.7-6.7 3.7-9.9 0 0-14.3-12.2-14.3-12.2h10.6c3.1 0 5.6-2.5 5.6-5.6v-22.2c0-3.1-2.5-5.6-5.6-5.6h-27.4c-3.1 0-5.6 2.5-5.6 5.6v44.3c0 3 2.5 5.5 5.6 5.5zm5.7-44.3h16.1v10.9h-16.1z"/></svg>