<svg id="Layer_1" viewBox="0 0 512 512" xmlns="http://www.w3.org/2000/svg" data-name="Layer 1" width="300" height="300" version="1.1" xmlns:xlink="http://www.w3.org/1999/xlink" xmlns:svgjs="http://svgjs.dev/svgjs"><g width="100%" height="100%" transform="matrix(1,0,0,1,0,0)"><path d="m464.49 259.1c-15.85-1.5-32.16 4.12-45.92 15.82l-63.12 50.16-9.42 7.58c-1.71-5.52-4.73-11.54-10.08-16.02-6.29-5.28-14.38-7.39-24.07-6.29h-11.56c.6-1.41.72-3 .32-4.53l-10.85-40.54 77.69-80.56 36.04-36.04 40.45 10.86c2.42.65 5-.04 6.77-1.81l50.23-50.23c1.77-1.77 2.46-4.35 1.81-6.77l-10.29-38.32c-.65-2.42-2.53-4.31-4.95-4.95-2.41-.65-4.99.04-6.76 1.81l-35.74 35.76-8.23 8.21-22.47-6.02-6.01-22.43 44-44c1.77-1.77 2.46-4.35 1.81-6.77s-2.54-4.3-4.96-4.95l-38.34-10.26c-2.41-.65-4.99.04-6.76 1.81l-50.2 50.2c-1.77 1.77-2.46 4.35-1.81 6.76l10.85 40.54-77.69 80.58-36.04 36.02-40.46-10.83c-2.41-.64-4.99.04-6.76 1.81l-50.2 50.2c-1.77 1.77-2.46 4.35-1.81 6.76l7.27 27.13c-24.27 10.83-50.59 30.42-78.73 58.63l-20.1-22.53c-1.24-1.39-2.97-2.22-4.83-2.33-1.85-.11-3.67.53-5.06 1.77l-36.71 32.77c-2.88 2.58-3.14 7-.56 9.88l109.81 123.08c1.38 1.55 3.3 2.34 5.23 2.34 1.66 0 3.32-.59 4.66-1.78l36.71-32.74c1.39-1.24 2.22-2.97 2.33-4.83.11-1.85-.53-3.67-1.77-5.06l-17.9-20.07c124.32.1 186.5.13 186.5.13 1.78 0 3.49-.68 4.79-1.9l158.77-148.99c2.67-2.5 2.96-6.64.67-9.49-8.93-11.11-22.24-18.25-36.52-19.59zm-299.98 13.86 44.49-44.49 40.46 10.83c2.41.64 4.99-.04 6.76-1.81l38.95-38.92s.06-.06.09-.09l80.48-83.48c1.7-1.77 2.36-4.3 1.72-6.67l-10.83-40.46 44.49-44.49 22.73 6.08-38.27 38.27c-1.77 1.77-2.46 4.35-1.81 6.76l8.11 30.25c.65 2.42 2.54 4.3 4.95 4.95l30.27 8.11c2.41.65 4.99-.04 6.76-1.81l11.09-11.06 27.17-27.19 6.1 22.71-44.51 44.51-40.46-10.86c-2.42-.65-4.99.04-6.76 1.81l-38.95 38.95s-.06.06-.09.09l-80.48 83.45c-1.7 1.77-2.36 4.3-1.72 6.67l10.83 40.46-4.81 4.81h-28.78l4.66-4.66c1.77-1.77 2.46-4.35 1.81-6.76l-8.11-30.27c-.65-2.42-2.54-4.3-4.95-4.95l-30.24-8.11c-2.41-.65-5 .04-6.76 1.81l-36.81 36.78c-.57.18-1.14.34-1.72.53l-5.83-21.76zm76.12 29.42c-12.4-8.35-26.17-12.58-41.12-12.58-.38 0-.77 0-1.15 0-.72.01-1.45.05-2.18.08l19.73-19.71 22.44 6.01 6.02 22.46-3.73 3.73zm-113.81 184.15-100.49-112.63 26.26-23.44 100.49 112.66-26.26 23.42zm207.2-61.46c-13.81 0-79.23-.04-196.23-.14l-49.98-56.03c29.01-29.21 55.59-48.68 79.42-58.22.04-.01.09-.02.13-.03.57-.15 1.11-.37 1.6-.65 2.83-1.08 5.61-2.02 8.36-2.82.24-.05.47-.12.7-.2 7.12-2.01 13.97-3.08 20.54-3.18h.92c16.29 0 30.94 6.24 43.58 18.56 1.31 1.28 3.06 1.99 4.89 1.99h64.35c.29 0 .57-.02.86-.05 5.94-.74 10.46.27 13.8 3.07 5.06 4.24 6.6 11.92 7.06 16.12-.22 10-8.98 18.39-19.34 18.39h-93.94c-3.87 0-7 3.13-7 7s3.13 7 7 7h93.94c15.85 0 29.54-11.52 32.68-26.32l16.83-13.55 63.18-50.2c.06-.05.13-.1.19-.15 11.04-9.41 23.36-13.78 35.62-12.62 8.36.79 16.27 4.26 22.46 9.75zm-320.71-83.64c.87.36 1.78.53 2.68.53 1.82 0 3.61-.71 4.95-2.05l80.7-80.7c2.73-2.73 2.73-7.17 0-9.9l-6.27-6.27 166.56-166.56 2.98.18c2.63.16 5.11-1.16 6.45-3.42l23.73-40.11s.05-.09.08-.14l2.98-5.3c1.54-2.74 1.06-6.17-1.16-8.39l-8.7-8.67c-2.21-2.21-5.62-2.68-8.35-1.16l-5.3 2.95c-.06.03-.11.06-.17.1l-39.54 23.47c-2.36 1.4-3.68 4.04-3.39 6.76l.24 2.26-167.23 167.2-6.27-6.27c-2.73-2.73-7.17-2.73-9.9 0l-37.33 37.33c-1.31 1.31-2.05 3.09-2.05 4.95v86.74c0 2.83 1.71 5.38 4.32 6.47zm230.72-288.9c1.5-1.5 2.24-3.59 2.01-5.69l-.12-1.11 35.59-21.13.61-.34 1.2 1.2-21.84 36.96-1.85-.11c-2.02-.11-3.96.62-5.37 2.04l-168.79 168.78-11.02-11.02zm-221.04 198.59 30.33-30.33 6.27 6.27s0 0 0 .01 0 0 .01 0l20.89 20.89s.01.01.02.02.01.01.02.02l6.25 6.25-63.8 63.8v-66.94z" fill="#ffffff" fill-opacity="0.10196078431372549" data-original-color="#000000ff" stroke="none" stroke-opacity="1"/></g></svg>